<svg width="120" height="20" viewBox="0 0 120 20" fill="none" xmlns="http://www.w3.org/2000/svg">
<path d="M0 9.99976C0 3.80132 3.90761 0.328887 9.61732 0.328887H16.474V4.02153H9.83568C6.33951 4.02153 3.96277 6.0336 3.96277 9.99976C3.96277 13.9659 6.33951 15.978 9.83568 15.978H16.474V19.6707H9.61732C3.90761 19.6707 0 16.1449 0 9.99976ZM20.0245 13.5002V0.331413H23.8493V12.7005C23.8493 15.0973 25.0791 15.9504 27.0996 15.9504H29.3935C31.3888 15.9504 32.6437 15.0973 32.6437 12.7005V0.331413H36.4411V13.528C36.4411 17.6889 33.7104 19.6709 30.0212 19.6709H26.4698C22.7552 19.6709 20.0222 17.6866 20.0222 13.5002H20.0245ZM40.5661 0.331413H51.9029C55.7829 0.331413 57.7228 2.4246 57.7228 5.78576C57.7228 7.93458 56.7115 9.6708 55.1002 10.139C56.7667 10.3314 57.5597 11.5438 57.5597 13.0041V19.6709H53.7072V13.9128C53.7072 12.8929 53.4061 12.1766 52.0408 12.1766H44.4186V19.6709H40.5661V0.331413ZM51.3856 8.56972C53.1349 8.56972 53.8451 7.63323 53.8451 6.25633C53.8451 4.76813 53.1349 3.97072 51.3329 3.97072H44.4209V8.57205H51.3881L51.3856 8.56972ZM61.1369 16.0058H71.7104C72.9951 16.0058 73.8136 15.2895 73.8136 13.9938C73.8136 12.6447 72.9676 12.1208 71.6275 12.0095L66.2993 11.5969C62.9389 11.3489 60.645 9.64047 60.645 6.00346C60.645 2.39427 63.1848 0.328905 66.5178 0.328905H76.9809V3.99373H66.7362C65.2605 3.99373 64.495 4.70999 64.495 5.97796C64.495 7.29925 65.3155 7.85095 66.7637 7.99003L72.1723 8.37481C75.4777 8.62286 77.6636 10.3869 77.6636 13.9404C77.6636 17.3572 75.3422 19.6707 71.9816 19.6707H61.1344V16.0058H61.1369ZM79.603 9.97222C79.603 4.10294 83.8095 0 89.4387 0H89.4939C95.1209 0 99.3572 4.10525 99.3572 9.97222C99.3572 15.867 95.1232 20 89.4939 20H89.4387C83.8118 20 79.603 15.867 79.603 9.97222ZM89.4663 16.2541C92.9349 16.2541 95.477 13.7738 95.477 10C95.477 6.25408 92.9371 3.74596 89.4663 3.74596C86.0231 3.74596 83.483 6.25408 83.483 10C83.483 13.7738 86.0231 16.2541 89.4663 16.2541ZM102.386 0.331413H113.723C117.603 0.331413 119.543 2.4246 119.543 5.78576C119.543 7.93458 118.532 9.6708 116.92 10.139C118.587 10.3314 119.38 11.5438 119.38 13.0041V19.6709H115.527V13.9128C115.527 12.8929 115.226 12.1766 113.861 12.1766H106.239V19.6709H102.386V0.331413ZM113.206 8.56972C114.955 8.56972 115.665 7.63323 115.665 6.25633C115.665 4.76813 114.955 3.97072 113.153 3.97072H106.241V8.57205H113.208L113.206 8.56972Z" fill="black" style="fill:black;fill-opacity:1;"/>
</svg>
